PathFileType	4	(X/Y/Z)	C:/Users/beibeiliu/ov580/test_trc/User2\sequence.13_training_dense_right.trc
DataRate	CameraRate	NumFrames	NumMarkers	Units	OrigDataRate	OrigDataStartFrame	OrigNumFrames
120	120	24	19	mm	120	1	62
Frame#	Time	ThumbCMC			ThumbMCP			ThumbIP			ThumbTip			IndexMCP			IndexPIP			IndexTip			MiddleMCP			MiddlePIP			MiddleTip			RingMCP			RingPIP			RingTip			PinkyMCP			PinkyPIP			PinkyTip			BackHand1			BackHand2			BackHand3	
		X0	Y0	Z0	X1	Y1	Z1	X2	Y2	Z2	X3	Y3	Z3	X4	Y4	Z4	X5	Y5	Z5	X6	Y6	Z6	X7	Y7	Z7	X8	Y8	Z8	X9	Y9	Z9	X10	Y10	Z10	X11	Y11	Z11	X12	Y12	Z12	X13	Y13	Z13	X14	Y14	Z14	X15	Y15	Z15	X16	Y16	Z16	X17	Y17	Z17	X18	Y18	Z18	
0	0	132.155	57.3592	-27.152	101.197	61.5996	-59.481	84.9622	52.8566	-91.9574	77.4216	40.0153	-113.284	176.599	62.3002	-98.0765	177.385	70.7971	-127.934	180.126	78.7002	-149.655	170.113	31.0655	-112.182	163.753	36.945	-143.53	153.114	35.982	-174.214	145.376	20.3972	-113.597	116.019	30.8827	-123.654	92.9716	37.816	-95.4458	147.595	0.854987	-102.108	142.686	4.81333	-128.514	140.548	7.76437	-150.361	165.463	4.34807	-53.4771	165.18	-1.17329	-18.4487	171.662	35.3926	-28.8203	
1	0.00833333	103.977	43.395	-34.9363	78.3193	31.7491	-60.787	67.9524	15.4139	-95.8633	61.0375	1.24786	-115.261	147.747	56.576	-99.7397	149.67	64.7481	-129.439	151.016	65.1722	-157.202	154.085	28.9263	-110.104	148.465	26.5757	-147.404	140.365	19.4282	-176.716	134.809	7.48477	-114.251	108.524	-1.46209	-125.812	79.6546	5.32612	-100.363	143.734	-11.226	-97.6524	138.725	-12.2465	-127.989	128.6	-7.6289	-151.518	155.301	3.21645	-50.5868	154.99	0.207494	-16.0066	150.23	37.3204	-31.7889	
2	0.0166667	81.6638	29.0302	-30.0271	59.2157	6.88306	-58.2258	47.232	-14.5079	-87.3782	46.9258	-33.2535	-103.574	120.664	35.2728	-104.764	118.739	39.3163	-131.479	119.353	33.8745	-159.354	131.621	7.82106	-115.591	125.012	-0.229493	-146.577	114.472	-15.1001	-175.056	117.181	-18.6385	-108.67	90.7473	-27.1602	-119.021	63.3226	-26.7585	-93.6264	130.172	-29.328	-92.5798	121.374	-37.3581	-118.698	106.608	-38.8663	-139.674	140.498	-7.08199	-49.4597	144.355	-5.89248	-16.5324	131.019	27.4313	-33.2841	
3	0.025	75.9632	30.2503	-27.9535	44.6276	12.2603	-44.6186	27.9105	-13.5009	-70.2967	20.1503	-34.7857	-83.3632	100.951	18.9413	-103.322	94.0543	14.4729	-134.661	90.3727	4.12118	-157.851	106.807	-16.0198	-108.608	91.8157	-28.4353	-138.564	74.939	-42.74	-159.603	88.2327	-32.8493	-100.105	56.0127	-40.0274	-100.632	38.913	-29.0777	-72.1129	102.713	-44.3729	-80.9517	88.3848	-52.6839	-103.309	64.4058	-56.7257	-123.888	125.366	-15.5535	-46.7079	132.257	-11.593	-11.9964	121.018	21.78	-39.0277	
4	0.0333333	85.9555	47.2192	-26.3071	49.0261	40.2795	-35.0741	19.367	23.6211	-53.091	3.53091	2.55192	-62.466	89.2065	15.6028	-102.446	78.8043	13.783	-126.018	65.43	1.84276	-147.798	82.316	-10.4649	-99.1139	55.8707	-21.808	-124.328	35.2653	-30.5116	-141.097	63.1529	-22.1208	-82.4413	28.3635	-14.2143	-80.019	21.7972	3.03635	-49.0995	71.8906	-39.1551	-65.3461	49.0782	-42.3025	-89.1005	26.7443	-41.4482	-103.335	111.125	-16.4365	-39.3009	126.778	-15.2379	-10.3284	122.53	15.9297	-35.473	
5	0.0416667	101.563	60.0065	-26.7129	65.636	66.3122	-30.8805	32.9579	66.1167	-41.645	8.05324	55.681	-49.9089	87.1352	29.0448	-99.0939	69.8747	22.7121	-121.909	55.6843	22.5162	-147.025	67.3435	3.29025	-91.6888	39.4106	0.846927	-111.214	14.6317	2.18538	-127.373	45.8189	4.94001	-75.5247	18.8096	20.1748	-68.6093	24.1542	44.2483	-43.7047	48.5677	-15.411	-58.8152	30.2587	-10.0469	-74.1475	5.89659	-7.66907	-92.0457	96.0413	-11.4173	-36.5292	116.744	-8.90529	-11.4036	121.344	17.389	-39.3847	
6	0.05	118.592	63.7786	-28.3909	88.7841	87.0439	-34.8597	55.5447	99.7164	-48.5211	29.7175	101.121	-53.9382	92.4157	35.4835	-99.8392	77.4309	37.5794	-125.704	56.8979	35.407	-143.572	66.8572	20.98	-93.7433	39.402	27.4846	-111.747	12.7123	35.4943	-126.911	43.6133	27.1529	-73.7545	25.5781	53.3144	-70.0056	35.4746	77.523	-47.0904	45.1225	12.8291	-55.2381	21.4128	21.2176	-71.2619	3.74967	28.7359	-89.8054	93.4465	1.11844	-34.7558	112.384	-1.73147	-9.17779	124.234	19.6386	-40.09	
7	0.0583333	136.189	61.8241	-30.6743	109.758	89.8224	-43.3655	82.9681	108.986	-58.7954	59.1164	118.901	-68.7384	104.069	33.1862	-104.95	85.2875	36.8318	-129.746	69.2427	40.1212	-152.093	71.0966	27.0886	-97.2815	48.4102	39.3877	-118.515	21.7644	53.8797	-135.413	52.0643	39.8801	-80.1753	40.0412	69.3909	-82.1468	54.2288	95.7042	-67.0878	49.3977	28.4109	-58.5664	33.7366	40.4381	-75.5874	15.8311	45.5097	-94.9799	90.9957	6.6913	-39.8198	109.328	0.577475	-7.07396	130.63	15.5782	-39.3226	
8	0.0666667	141.585	53.5835	-36.8924	124.398	84.8797	-51.1581	101.183	103.041	-68.7255	81.8543	117.729	-81.0333	111.878	24.445	-107.35	99.7896	27.531	-133.081	84.63	32.2364	-152.381	81.177	21.655	-100.165	59.5681	36.9466	-126.483	44.1864	51.047	-142.642	67.3428	35.1946	-86.9263	56.9856	64.7418	-96.9489	69.8756	96.9071	-80.6643	55.6996	30.576	-66.0315	44.5346	42.9432	-87.0083	28.8252	47.1937	-102.33	90.9395	5.44819	-37.6625	105.186	1.32488	-7.97733	131.458	9.68865	-36.188	
9	0.075	153.491	46.1141	-37.0582	132.495	74.7879	-59.436	111.861	90.8326	-81.4753	92.9223	102.444	-97.9206	122.232	9.27666	-108.137	116.574	12.6509	-133.378	99.4552	16.8707	-159.23	95.28	7.32096	-108.016	75.5139	20.3766	-133.843	61.9202	33.8153	-153.884	78.0574	20.8456	-93.332	70.6745	48.3218	-109.101	82.22	80.6062	-96.5842	63.7465	18.7046	-72.4146	55.3958	26.9181	-95.9123	46.6338	29.1266	-117.471	102.932	1.33204	-38.4886	109.161	-2.16021	-9.44344	136.896	-0.182321	-33.8403	
10	0.0833333	157.76	34.5057	-42.8461	139.421	60.4862	-71.5468	117.559	73.2663	-96.396	97.8172	77.8909	-112.749	142.968	-8.63017	-107.887	134.15	-8.40511	-140.091	119.043	-7.79005	-160.323	111.578	-13.4969	-110.253	94.9415	-7.47595	-136.806	80.8485	5.63998	-162.659	91.2085	-1.25135	-103.103	83.9297	23.299	-119.814	92.7845	56.3342	-108.007	77.656	-3.30956	-80.2647	71.9723	0.00590419	-105.748	63.606	-0.773664	-131.893	114.945	-12.7542	-39.9307	121.131	-12.9596	-8.39777	148.601	-7.58895	-34.3893	
11	0.0916667	164.042	33.5369	-43.1043	140.412	46.5865	-73.2093	117.029	51.8834	-106.208	98.615	53.133	-124.789	164.659	-17.6584	-112.06	156.538	-21.5982	-140.454	146.432	-22.9196	-166.769	138.121	-29.3766	-110.807	120.606	-29.1223	-143.084	108.43	-21.6925	-170.543	113.5	-23.4758	-107.83	100.7	-1.47068	-126.094	104.002	33.7337	-112.036	102.711	-26.8103	-89.469	93.2804	-28.7308	-115.268	87.1085	-30.3781	-138.052	129.25	-27.6112	-47.0595	134.812	-21.3391	-12.8062	165.914	-11.8999	-39.8847	
12	0.1	164.822	37.3263	-46.6628	138.689	41.0575	-77.6158	117.596	38.2921	-105.931	101.512	32.1984	-126.074	188.722	-12.1024	-114.32	183.587	-17.1611	-140.653	180.452	-18.9161	-164.734	166.077	-33.4456	-117.019	149.604	-38.1393	-146.963	137.557	-36.6855	-173.144	140.855	-32.6566	-112.563	118.993	-14.286	-129.317	113.331	17.4545	-114.218	130.206	-44.3305	-92.1254	127.323	-45.6999	-118.235	124.77	-47.8326	-143.445	155.704	-33.2536	-47.6183	153.345	-25.0632	-15.81	182.241	-6.47335	-35.9709	
13	0.108333	156.982	40.8949	-45.925	131.782	41.1447	-78.2621	117.198	29.9063	-107.732	104.086	20.2666	-127.266	200.288	11.6182	-108.043	202.888	7.90867	-137.145	204.426	4.51842	-166.649	188.398	-17.8192	-111.293	181.443	-23.2741	-143.902	170.283	-27.5936	-176.745	163.274	-25.9883	-114.782	143.151	-11.1471	-130.554	119.527	7.7967	-115.554	159.858	-41.5136	-91.7661	160.015	-42.4559	-122.849	161.675	-40.9324	-143.703	175.614	-21.6409	-45.5698	170.486	-18.6573	-17.1629	189.859	12.4353	-33.7139	
14	0.116667	145.777	49.2512	-42.5271	122.74	43.4641	-76.1127	117.268	27.7508	-107.996	114.497	12.1054	-133.202	205.457	48.4667	-103.359	210.268	46.6366	-131.122	215.386	48.6094	-155.169	205.124	18.5738	-109.168	203.623	9.04197	-139.21	198.913	4.91111	-172.775	184.747	-4.48519	-111.627	156.153	-0.0334097	-129.614	127.632	10.5219	-111.085	188.031	-19.3687	-92.0121	191.453	-21.9964	-119.185	194.109	-16.6728	-146.962	191.444	-4.12044	-44.6707	182.958	-1.05741	-12.9872	187.626	33.7598	-32.1608	
15	0.125	136.352	51.7493	-40.1314	121.737	38.7296	-75.2163	120.911	26.4611	-109.089	124.773	13.2871	-131.283	196.46	76.9278	-92.566	203.455	82.4418	-120.405	211.22	87.3564	-143.308	209.091	47.87	-103.556	211.725	46.7476	-136.391	212.788	42.789	-164.484	197.303	25.335	-108.167	176.959	13.8754	-128.747	141.227	11.6395	-114.346	205.715	5.9847	-89.6384	209.676	8.19637	-116.339	212.885	15.4901	-141.19	200.282	15.9422	-39.0736	191.029	10.7247	-11.4679	179.467	48.0288	-22.9841	
16	0.133333	130.653	46.1168	-36.8399	120.82	35.791	-76.8905	131.228	26.7498	-111.148	136.985	17.6397	-134.731	180.692	96.4907	-83.927	185.918	107.399	-107.971	198.04	114.33	-132.969	201.997	74.8559	-91.2727	207.978	76.6946	-124.307	214.629	72.1205	-154.44	200.329	49.118	-97.5544	182.003	36.4609	-125.324	150.303	21.7321	-115.097	211.86	30.3018	-82.4592	215.429	39.7946	-112.871	219.143	48.5254	-135.815	198.75	36.437	-33.3222	190.136	23.38	-4.78427	169.543	55.9153	-17.2808	
17	0.141667	121.386	47.8253	-37.1461	121.665	36.1292	-76.8214	126.098	30.1909	-110.402	135.815	25.273	-132.677	165.031	107.193	-77.6998	169.524	120.576	-100.552	176.205	131.637	-122.584	191.291	90.7976	-87.9822	198.275	96.8806	-120.344	202.55	101.192	-148.894	191.674	68.1779	-96.2813	178.203	49.6163	-122.759	151.207	32.6852	-114.986	206.284	53.7882	-80.8472	211.456	62.0002	-107.576	218.467	70.6793	-126.765	192.884	50.2362	-30.0096	184.215	33.6809	-0.750999	156.095	64.4263	-13.7779	
18	0.15	108.369	47.1064	-32.2935	111.371	37.0357	-74.7776	116.076	30.5105	-108.237	127.632	27.2897	-133.16	146.149	110.58	-74.2199	151.514	123.251	-96.9089	160.878	137.429	-122.283	175.885	99.3012	-86.7812	184.302	101.907	-114.279	192.569	105.867	-147.234	183.956	70.5605	-92.092	170.046	58.9184	-120.445	142.452	33.9115	-112.773	195.503	57.6783	-76.7076	199.261	69.5413	-105.518	204.707	76.7351	-123.183	179.251	59.1844	-29.7247	172.243	40.9266	-2.12044	148.246	67.9154	-12.4239	
19	0.158333	98.9108	45.1077	-32.449	100.694	31.7236	-70.9178	105.595	22.8821	-102.245	115.929	17.0725	-128.567	131.835	101.865	-77.2677	134.283	116.087	-102.989	137.262	127.967	-125.927	165.279	89.6118	-90.5405	169.286	95.088	-120.954	175.162	99.7212	-152.013	169.4	65.4402	-98.4007	153.686	51.6596	-122.073	128.99	24.8316	-111.573	181.032	51.4809	-78.4131	185.98	59.4784	-105.415	188.376	73.1989	-127.866	168.376	57.8969	-32.963	165.65	42.3795	-3.75729	137.95	65.1172	-12.211	
20	0.166667	91.1849	35.1355	-31.9935	84.6672	16.3914	-64.407	88.051	2.97331	-100.895	104.716	-4.1233	-120.469	120.733	84.8952	-88.1433	115.516	95.7772	-113.211	117.926	103.89	-138.362	146.53	75.007	-94.0287	152.502	76.1504	-125.665	154.568	79.1625	-160.913	155.054	50.1182	-101.398	139.618	31.6537	-124.236	120.845	6.05604	-114.136	172.547	35.3046	-84.2931	173.691	37.7845	-108.723	177.461	46.0741	-132.663	161.439	44.4434	-32.4671	157.685	36.0255	-2.49374	124.184	61.9733	-20.7055	
21	0.175	78.6044	26.5191	-30.0896	74.4078	1.61422	-61.3255	73.8463	-16.9024	-93.4966	85.4758	-29.4393	-111.136	104.343	66.659	-97.8582	99.2392	71.4217	-118.895	99.6342	76.6824	-150.424	132.889	53.2199	-103.326	131.566	51.6491	-136.486	135.581	47.1441	-166.217	142.484	26.6727	-105.236	127.931	8.12062	-122.768	104.888	-16.9878	-109.909	158.035	16.9582	-88.4261	155.8	15.6893	-113.008	157.641	18.8879	-136.774	146.169	36.0242	-35.3174	146.578	29.3227	-5.04909	118.574	50.9028	-21.1763	
22	0.183333	70.9476	22.1917	-25.865	59.9452	-5.95297	-49.6411	59.0713	-28.5113	-82.7418	67.2332	-45.5782	-100.207	92.2786	51.1134	-100.402	86.3225	50.5803	-125.924	85.5808	51.2229	-151.736	121.398	30.934	-103.048	118.514	23.6432	-136.405	115.596	15.5263	-169.367	128.075	4.73205	-100.762	107.611	-15.7962	-118.194	84.4585	-36.8456	-98.5796	140.269	-1.32813	-87.728	140.213	-10.0338	-111.714	134.351	-8.6893	-137.723	138.474	24.795	-42.6655	137.875	22.6407	-5.11831	111.467	43.8267	-27.48	
23	0.191667	62.9873	26.4884	-19.8998	45.9104	-3.71335	-41.5979	39.0531	-28.1767	-64.6498	37.3763	-50.4325	-84.4657	86.2666	37.9931	-97.8461	74.304	39.4085	-125.695	72.2807	33.5396	-150.389	105.634	17.2062	-103.659	99.5295	3.31814	-135.273	92.7722	-7.62866	-162.423	106.264	-12.7064	-98.5973	81.1474	-34.9093	-107.851	55.3625	-39.7827	-81.2574	122.398	-20.7767	-84.8799	114.656	-27.9206	-105.388	104.367	-38.2768	-131.074	129.517	9.42219	-44.3386	134.995	15.4794	-7.67075	109	39.453	-26.0153	
